<svg width="36" height="36" viewBox="0 0 36 36" fill="none" xmlns="http://www.w3.org/2000/svg">
<path fill-rule="evenodd" clip-rule="evenodd" d="M28.5 1.5H30V3L31.5 3V4.5L33 4.5V6H34.5V7.5V9V28.5V30H33V31.5H31.5V33H30V34.5H28.5L27 34.5L7.5 34.5H6V33H4.5V31.5H3L3 30H1.5V28.5V9V7.5V6H3V4.5H4.5V3H6V1.5H7.5H27H28.5ZM4.5 9L4.5 28.5H6V30H7.5V31.5L27 31.5L28.5 31.5V30H30V28.5H31.5L31.5 9L31.5 7.5H30V6H28.5V4.5H27H7.5V6H6V7.5H4.5V9ZM28.5 7.5V9V10.5H27H25.5V9V7.5H27H28.5ZM16.5 12H18H19.5V13.5H21H22.5V15V16.5H24V18V19.5H22.5V21V22.5H21H19.5V24H18H16.5V22.5H15H13.5V21V19.5H12V18V16.5H13.5V15V13.5H15H16.5V12ZM27 19.5V18V16.5V15H25.5V13.5H24V12H22.5V10.5H21V9H19.5H18H16.5H15V10.5H13.5V12H12V13.5H10.5V15H9V16.5V18V19.5V21H10.5V22.5H12V24H13.5V25.5H15V27H16.5H18H19.5H21V25.5H22.5V24H24V22.5H25.5V21H27V19.5Z" fill="black"/>
</svg>
