<svg width="8" height="13" viewBox="0 0 8 13" fill="none" xmlns="http://www.w3.org/2000/svg">
<path fill-rule="evenodd" clip-rule="evenodd" d="M4.5 2.5H3.5V3H3V3.5H2.5V4H2V4.5H1.5V5H6.5V4.5H6V4H5.5V3.5H5V3H4.5V2.5Z" fill="#262626"/>
<rect opacity="0.8" x="3.5" y="2" width="1" height="0.5" fill="#262626"/>
<rect opacity="0.8" x="3" y="2.5" width="0.5" height="0.5" fill="#262626"/>
<rect opacity="0.8" x="4.5" y="2.5" width="0.5" height="0.5" fill="#262626"/>
<rect opacity="0.8" x="5" y="3" width="0.5" height="0.5" fill="#262626"/>
<rect opacity="0.8" x="2.5" y="3" width="0.5" height="0.5" fill="#262626"/>
<rect opacity="0.8" x="2" y="3.5" width="0.5" height="0.5" fill="#262626"/>
<rect opacity="0.8" x="5.5" y="3.5" width="0.5" height="0.5" fill="#262626"/>
<rect opacity="0.8" x="6" y="4" width="0.5" height="0.5" fill="#262626"/>
<rect opacity="0.8" x="1.5" y="4" width="0.5" height="0.5" fill="#262626"/>
<rect opacity="0.8" x="1" y="4.5" width="0.5" height="0.5" fill="#262626"/>
<rect opacity="0.8" x="6.5" y="4.5" width="0.5" height="0.5" fill="#262626"/>
<rect opacity="0.7" x="7" y="4.5" width="0.5" height="1" fill="#262626"/>
<rect opacity="0.7" x="0.5" y="4.5" width="0.5" height="1" fill="#262626"/>
<rect opacity="0.7" x="1" y="5" width="6" height="0.5" fill="#262626"/>
<rect opacity="0.7" x="1" y="4" width="0.5" height="0.5" fill="#262626"/>
<rect opacity="0.2" x="3.5" y="1" width="1" height="0.5" fill="#262626"/>
<rect opacity="0.2" x="3" y="1.5" width="0.5" height="0.5" fill="#262626"/>
<rect opacity="0.2" x="4.5" y="1.5" width="0.5" height="0.5" fill="#262626"/>
<rect opacity="0.2" x="5" y="2" width="0.5" height="0.5" fill="#262626"/>
<rect opacity="0.2" x="2.5" y="2" width="0.5" height="0.5" fill="#262626"/>
<rect opacity="0.2" x="2" y="2.5" width="0.5" height="0.5" fill="#262626"/>
<rect opacity="0.2" x="5.5" y="2.5" width="0.5" height="0.5" fill="#262626"/>
<rect opacity="0.2" x="6" y="3" width="0.5" height="0.5" fill="#262626"/>
<rect opacity="0.2" x="1.5" y="3" width="0.5" height="0.5" fill="#262626"/>
<rect opacity="0.2" x="1" y="3.5" width="0.5" height="0.5" fill="#262626"/>
<rect opacity="0.2" x="6.5" y="3.5" width="0.5" height="0.5" fill="#262626"/>
<rect opacity="0.2" x="7" y="4" width="0.5" height="0.5" fill="#262626"/>
<rect opacity="0.05" x="7.5" y="4" width="0.5" height="0.5" fill="#262626"/>
<rect opacity="0.05" y="4" width="0.5" height="0.5" fill="#262626"/>
<rect opacity="0.05" x="1" y="3" width="0.5" height="0.5" fill="#262626"/>
<rect opacity="0.05" x="2" y="2" width="0.5" height="0.5" fill="#262626"/>
<rect opacity="0.05" x="3" y="1" width="0.5" height="0.5" fill="#262626"/>
<rect opacity="0.05" x="4.5" y="1" width="0.5" height="0.5" fill="#262626"/>
<rect opacity="0.05" x="5.5" y="2" width="0.5" height="0.5" fill="#262626"/>
<rect opacity="0.05" x="6.5" y="3" width="0.5" height="0.5" fill="#262626"/>
<rect opacity="0.2" x="0.5" y="4" width="0.5" height="0.5" fill="#262626"/>
<rect opacity="0.2" y="4.5" width="0.5" height="1" fill="#262626"/>
<rect opacity="0.2" x="7.5" y="4.5" width="0.5" height="1" fill="#262626"/>
<rect opacity="0.7" x="1.5" y="3.5" width="0.5" height="0.5" fill="#262626"/>
<rect opacity="0.7" x="2" y="3" width="0.5" height="0.5" fill="#262626"/>
<rect opacity="0.7" x="2.5" y="2.5" width="0.5" height="0.5" fill="#262626"/>
<rect opacity="0.7" x="3" y="2" width="0.5" height="0.5" fill="#262626"/>
<rect opacity="0.7" x="4.5" y="2" width="0.5" height="0.5" fill="#262626"/>
<rect opacity="0.7" x="5" y="2.5" width="0.5" height="0.5" fill="#262626"/>
<rect opacity="0.7" x="5.5" y="3" width="0.5" height="0.5" fill="#262626"/>
<rect opacity="0.7" x="6" y="3.5" width="0.5" height="0.5" fill="#262626"/>
<rect opacity="0.7" x="6.5" y="4" width="0.5" height="0.5" fill="#262626"/>
<rect opacity="0.7" x="3.5" y="1.5" width="1" height="0.5" fill="#262626"/>
<path fill-rule="evenodd" clip-rule="evenodd" d="M3.5 10L4.5 10L4.5 9.5L5 9.5L5 9L5.5 9L5.5 8.5L6 8.5L6 8L6.5 8L6.5 7.5L1.5 7.5L1.5 8L2 8L2 8.5L2.5 8.5L2.5 9L3 9L3 9.5L3.5 9.5L3.5 10Z" fill="#262626"/>
<rect opacity="0.8" x="4.5" y="10.5" width="1" height="0.5" transform="rotate(-180 4.5 10.5)" fill="#262626"/>
<rect opacity="0.8" x="5" y="10" width="0.5" height="0.5" transform="rotate(-180 5 10)" fill="#262626"/>
<rect opacity="0.8" x="3.5" y="10" width="0.5" height="0.5" transform="rotate(-180 3.5 10)" fill="#262626"/>
<rect opacity="0.8" x="3" y="9.5" width="0.5" height="0.5" transform="rotate(-180 3 9.5)" fill="#262626"/>
<rect opacity="0.8" x="5.5" y="9.5" width="0.5" height="0.5" transform="rotate(-180 5.5 9.5)" fill="#262626"/>
<rect opacity="0.8" x="6" y="9" width="0.5" height="0.5" transform="rotate(-180 6 9)" fill="#262626"/>
<rect opacity="0.8" x="2.5" y="9" width="0.5" height="0.5" transform="rotate(-180 2.5 9)" fill="#262626"/>
<rect opacity="0.8" x="2" y="8.5" width="0.5" height="0.5" transform="rotate(-180 2 8.5)" fill="#262626"/>
<rect opacity="0.8" x="6.5" y="8.5" width="0.5" height="0.5" transform="rotate(-180 6.5 8.5)" fill="#262626"/>
<rect opacity="0.8" x="7" y="8" width="0.5" height="0.5" transform="rotate(-180 7 8)" fill="#262626"/>
<rect opacity="0.8" x="1.5" y="8" width="0.5" height="0.5" transform="rotate(-180 1.5 8)" fill="#262626"/>
<rect opacity="0.7" x="1" y="8" width="0.5" height="1" transform="rotate(-180 1 8)" fill="#262626"/>
<rect opacity="0.7" x="7.5" y="8" width="0.5" height="1" transform="rotate(-180 7.5 8)" fill="#262626"/>
<rect opacity="0.7" x="7" y="7.5" width="6" height="0.5" transform="rotate(-180 7 7.5)" fill="#262626"/>
<rect opacity="0.7" x="7" y="8.5" width="0.5" height="0.5" transform="rotate(-180 7 8.5)" fill="#262626"/>
<rect opacity="0.2" x="4.5" y="11.5" width="1" height="0.5" transform="rotate(-180 4.5 11.5)" fill="#262626"/>
</svg>