<svg width="16" height="16" fill="none" xmlns="http://www.w3.org/2000/svg"><g clip-path="url(#State=Default, Position=Up__a)"><path fill="#DDD" d="M0 0h16v16H0z"/><path fill="#fff" d="M0 1h16v1H0z"/><path fill="#fff" d="M1 0h1v16H1z"/><path fill="gray" d="M0 14h16v1H0z"/><path fill="gray" d="M14 0h1v16h-1z"/><path fill-rule="evenodd" clip-rule="evenodd" d="M8.5 6.5h-1V7H7v.5h-.5V8H6v.5h-.5V9h5v-.5H10V8h-.5v-.5H9V7h-.5v-.5Z" fill="#262626"/><path opacity=".8" fill="#262626" d="M7.5 6h1v.5h-1zm-.5.5h.5V7H7zm1.5 0H9V7h-.5zM9 7h.5v.5H9zM6.5 7H7v.5h-.5zm-.5.5h.5V8H6zm3.5 0h.5V8h-.5zm.5.5h.5v.5H10zM5.5 8H6v.5h-.5zm-.5.5h.5V9H5zm5.5 0h.5V9h-.5z"/><path opacity=".7" fill="#262626" d="M11 8.5h.5v1H11zm-6.5 0H5v1h-.5zM5 9h6v.5H5zm0-1h.5v.5H5z"/><path opacity=".4" fill="#262626" d="M5 9.5h6v.5H5z"/><path opacity=".2" fill="#262626" d="M7.5 5h1v.5h-1zm-.5.5h.5V6H7zm1.5 0H9V6h-.5zM9 6h.5v.5H9zM6.5 6H7v.5h-.5zm-.5.5h.5V7H6zm3.5 0h.5V7h-.5zm.5.5h.5v.5H10zM5.5 7H6v.5h-.5zm-.5.5h.5V8H5zm5.5 0h.5V8h-.5zm.5.5h.5v.5H11zm0 1.5h.5v.5H11z"/><path opacity=".05" fill="#262626" d="M11.5 9.5h.5v.5h-.5zM4 9.5h.5v.5H4zM11.5 8h.5v.5h-.5zM4 8h.5v.5H4zm1-1h.5v.5H5zm1-1h.5v.5H6zm1-1h.5v.5H7zm1.5 0H9v.5h-.5zm1 1h.5v.5h-.5zm1 1h.5v.5h-.5z"/><path opacity=".2" fill="#262626" d="M4.5 8H5v.5h-.5zm0 1.5H5v.5h-.5zm-.5-1h.5v1H4zm7.5 0h.5v1h-.5z"/><path opacity=".7" fill="#262626" d="M5.5 7.5H6V8h-.5zM6 7h.5v.5H6zm.5-.5H7V7h-.5zM7 6h.5v.5H7zm1.5 0H9v.5h-.5zm.5.5h.5V7H9zm.5.5h.5v.5h-.5zm.5.5h.5V8H10zm.5.5h.5v.5h-.5zm-3-2.5h1V6h-1z"/></g><path stroke="#262626" d="M.5.5h15v15H.5z"/><defs><clipPath id="State=Default, Position=Up__a"><path fill="#fff" d="M0 0h16v16H0z"/></clipPath></defs></svg>