<svg width="36" height="36" viewBox="0 0 36 36" fill="none" xmlns="http://www.w3.org/2000/svg">
<path fill-rule="evenodd" clip-rule="evenodd" d="M25.5 3H27V4.5H28.5V6H30H31.5H33V7.5H31.5V9H33V7.5H34.5H36V9H34.5V10.5H33H31.5V12V13.5V15V16.5V18H30V19.5V21V22.5H28.5V24H27V25.5H25.5V27H24V28.5H22.5V30H21H19.5V31.5H18H16.5V33H15H13.5H12H10.5H9V31.5H7.5H6H4.5H3V30H1.5V28.5H3H4.5H6H7.5V27H9H10.5V25.5H9H7.5V24H6V22.5H4.5V21H6V19.5H4.5H3V18H1.5V16.5V15V13.5H3V15H4.5V13.5H3V12H1.5V10.5V9V7.5V6H3V4.5H4.5V6H6V7.5H7.5V9H9V10.5H10.5H12V12H13.5H15H16.5V10.5V9H18V7.5V6H19.5V4.5H21H22.5V3H24H25.5ZM33 6V4.5H34.5V6H33Z" fill="black"/>
</svg>
