<svg width="36" height="36" viewBox="0 0 36 36" fill="none" xmlns="http://www.w3.org/2000/svg">
<path fill-rule="evenodd" clip-rule="evenodd" d="M34 5H1V8V29H4V12.5H5.49995V11H4V11H5.49995V9.5H4V9.49999H5.49995V7.99999H29.5V9.49999L28 9.5V11V12.5V12.5V14H29.5V12.5H31V29H34V7.99999L34 8V5ZM34 32V29H1V32H34ZM5.5 9.5H7V11H5.5V9.5ZM7.00005 11H8.49995H8.50005H9.99995V12.5V12.5V14H8.50005H8.49995H7.00005V12.5V12.5V11ZM26.5 11H28V12.5V12.5V14H26.5V12.5V12.5V11ZM25 12.5H23.5V14H25H25H26.5V12.5V12.5V11H25V12.5ZM10 14H11.5V15.5H10V14ZM23.5 15.5V14H25H25H26.5V15.5H25H25H23.5ZM10 12.5H11.5V14H10V12.5ZM11.5 14H13V15.5H11.5V14ZM22 14H23.5V15.5H22V14ZM13 15.5H14.5V17V17V18.5H13H13H11.5V17V17V15.5H13H13ZM20.5 15.5H22V17V17V18.5H20.5H20.5H19V17H20.5V15.5ZM14.5 17H16V18.5H14.5V17ZM5.5 11H7V12.5V12.5V14H5.5V12.5V12.5V11ZM8.49995 14H9.99995V15.5H8.49995V14ZM10 15.5H11.5V17H10V15.5ZM23.5 17V15.5H25V17H23.5ZM22 15.5H23.5V17V17V18.5H22V17V17V15.5ZM14.5 18.5H16V20H14.5V18.5ZM17.5 18.5H16V20H17.5H17.5H19V18.5H17.5H17.5ZM17.5 20H16V21.5H17.5H17.5H19V20H17.5H17.5ZM19 20V18.5H20.5V20H19Z" fill="black"/>
</svg>
