<svg width="36" height="36" viewBox="0 0 36 36" fill="none" xmlns="http://www.w3.org/2000/svg">
<path fill-rule="evenodd" clip-rule="evenodd" d="M12 1.5H13.5H15H16.5H18H19.5H21H22.5H24V3H25.5L27 3V4.5L28.5 4.5V6H30V7.5H31.5V9H33V10.5V12H34.5V13.5V15V16.5V18V19.5V21V22.5V24H33V25.5V27H31.5V28.5H30V30H28.5V31.5H27V33H25.5H24V34.5H22.5H21H19.5H18H16.5H15H13.5H12V33H10.5H9V31.5H7.5V30H6V28.5H4.5V27H3L3 25.5V24H1.5V22.5V21V19.5V18V16.5V15V13.5V12H3V10.5V9H4.5V7.5H6V6H7.5V4.5H9V3H10.5H12V1.5ZM27 21V19.5H25.5V18H24V16.5H22.5H21H19.5H18H16.5H15H13.5H12H10.5V15H9V16.5V18V19.5H21H22.5V21L24 21L27 21ZM22.5 13.5H21H9V12V10.5V9H10.5V10.5H12H13.5H15H16.5H18H19.5H21H22.5H24V12H25.5V13.5H27V15H24H22.5V13.5ZM9 21V22.5V24V25.5H21H22.5V27H27V25.5H25.5V24H24V22.5H22.5H21H19.5H18H16.5H15H13.5H12H10.5V21H9Z" fill="black"/>
</svg>
