<svg width="25" height="24" viewBox="0 0 25 24" fill="none" xmlns="http://www.w3.org/2000/svg">
  <path fill-rule="evenodd" clip-rule="evenodd"
    d="M13.6667 2H12.8333V2.83333H12V3.66667H11.1667V4.5H10.3333V5.33333V6.16667H9.5V7H8.66667V7.83333V8.66667H7.83333V9.5V10.3333H7V11.1667H6.16667V12V12.8333H5.33333L5.33333 13.6667H4.5V14.5H5.33333H6.16667H7H7.83333H8.66667H9.5H10.3333H11.1667H12L12 15.3333V16.1667V17V17.8333V18.6667V19.5V20.3333V21.1667V22H12.8333V21.1667H13.6667V20.3333H14.5V19.5H15.3333V18.6667V17.8333H16.1667V17H17V16.1667V15.3333H17.8333V14.5V13.6667H18.6667V12.8333H19.5V12V11.1667H20.3333V10.3333H21.1667V9.5H20.3333H19.5H18.6667H17.8333H17H16.1667H15.3333H14.5H13.6667L13.6667 8.66667V7.83333V7V6.16667V5.33333V4.5V3.66667V2.83333V2Z"
    fill="black" />
</svg>