<?xml version="1.0" standalone="no"?>
<!DOCTYPE svg PUBLIC "-//W3C//DTD SVG 20010904//EN"
 "http://www.w3.org/TR/2001/REC-SVG-20010904/DTD/svg10.dtd">
<svg version="1.0" xmlns="http://www.w3.org/2000/svg"
 width="512.000000pt" height="512.000000pt" viewBox="0 0 512.000000 512.000000"
 preserveAspectRatio="xMidYMid meet">
<metadata>
Created by potrace 1.11, written by Peter Selinger 2001-2013
</metadata>
<g transform="translate(0.000000,512.000000) scale(0.100000,-0.100000)"
fill="#000000" stroke="none">
<path d="M2610 5106 c0 -8 -3 -16 -7 -18 -5 -1 -18 -22 -31 -46 -23 -42 -23
-43 -23 -444 l0 -402 -47 -71 c-26 -38 -71 -116 -100 -173 l-53 -102 -37 16
c-86 37 -211 63 -338 70 -153 8 -159 -12 -19 -61 195 -68 323 -154 445 -301
71 -85 113 -183 126 -290 4 -32 8 -72 10 -89 15 -123 25 -505 13 -505 -5 0
-96 98 -159 170 -44 51 -198 217 -279 302 -166 174 -251 273 -318 373 -45 67
-108 195 -118 240 -2 6 -8 30 -16 55 -7 25 -13 54 -15 65 -1 11 -6 38 -9 60
-8 44 -8 147 0 184 38 193 182 360 473 550 120 79 101 99 -45 49 -219 -75
-469 -254 -603 -432 -135 -178 -150 -382 -45 -599 88 -181 256 -348 523 -516
28 -18 52 -37 52 -43 0 -5 -4 -7 -8 -4 -37 22 -360 36 -512 21 -53 -5 -69 -7
-135 -21 -127 -26 -239 -90 -312 -178 -21 -25 -44 -90 -47 -131 -7 -88 44
-178 125 -221 43 -22 153 -28 169 -9 15 19 4 56 -31 96 -122 143 -65 297 132
353 87 25 108 28 226 31 216 5 402 -47 575 -160 129 -85 267 -249 303 -361 9
-27 19 -56 22 -64 8 -18 7 -17 16 -60 4 -19 9 -46 12 -60 13 -62 17 -113 19
-223 1 -64 0 -116 -3 -115 -58 28 -213 118 -306 178 -66 42 -158 99 -204 126
-157 92 -228 176 -217 256 8 57 37 99 100 143 10 7 16 18 12 23 -8 13 -96 6
-163 -13 -65 -19 -132 -77 -134 -116 -5 -85 12 -127 88 -216 47 -56 47 -58 -7
-44 -33 9 -52 12 -177 27 -149 17 -413 7 -538 -21 -193 -43 -356 -140 -449
-268 -68 -93 -81 -224 -31 -315 61 -112 178 -196 326 -233 111 -29 324 -31
414 -5 183 54 308 172 314 300 3 63 -20 114 -65 145 -116 79 -356 60 -413 -33
-28 -45 -24 -91 10 -126 29 -28 63 -44 174 -77 52 -16 60 -21 61 -43 1 -33
-21 -57 -76 -85 -62 -31 -100 -38 -210 -37 -224 1 -371 77 -446 229 -28 56
-25 139 7 208 12 28 50 77 83 110 96 94 232 156 411 186 65 11 365 15 410 5
11 -2 45 -7 75 -11 30 -4 64 -9 75 -11 11 -2 32 -6 46 -9 61 -11 212 -59 319
-101 141 -56 480 -230 480 -246 0 -4 -14 -15 -31 -23 -78 -41 -427 -259 -474
-297 -5 -5 -53 -38 -105 -74 -90 -63 -313 -228 -336 -249 -6 -5 -26 -21 -44
-35 -59 -45 -204 -162 -274 -221 -17 -14 -41 -34 -54 -45 -13 -10 -34 -28 -46
-39 -12 -11 -51 -45 -86 -75 -35 -30 -72 -63 -82 -73 -20 -19 -33 -23 -23 -7
3 5 8 40 10 76 8 148 -85 314 -231 414 -104 72 -327 149 -340 117 -2 -7 44
-61 104 -122 166 -170 214 -282 208 -488 -4 -125 -5 -132 -41 -236 -46 -137
-138 -280 -268 -417 -34 -36 -71 -81 -83 -100 -11 -19 -23 -33 -25 -31 -2 1
-1 -2 3 -7 4 -5 13 -4 22 3 9 8 16 8 20 2 9 -14 86 -11 86 3 0 8 2 8 8 0 9
-14 134 -14 144 1 5 6 8 6 8 -2 0 -7 5 -13 11 -13 5 0 8 4 5 9 -7 10 9 8 38
-4 11 -5 21 -3 26 5 6 10 9 9 13 -1 4 -12 7 -11 16 1 7 10 11 11 11 3 0 -7 5
-13 11 -13 5 0 8 4 5 9 -5 8 22 8 32 1 8 -7 28 -4 34 5 5 6 8 6 8 -2 0 -7 5
-13 11 -13 5 0 7 6 3 12 -6 11 -4 11 7 0 16 -14 33 -16 24 -2 -3 5 -1 10 4 10
6 0 11 -4 11 -8 0 -5 7 -9 15 -9 8 0 12 4 9 9 -3 4 0 8 5 8 6 0 11 -5 11 -11
0 -8 4 -8 14 0 10 8 16 9 21 1 4 -7 12 -7 26 0 14 8 19 7 19 -2 0 -8 3 -9 8
-3 9 12 32 13 51 0 10 -5 16 -4 19 4 3 9 8 9 20 -1 10 -9 13 -9 9 -1 -5 8 0
11 13 10 11 -1 20 -6 20 -12 0 -5 5 -3 10 5 8 12 10 12 10 1 0 -10 3 -11 14
-2 8 7 17 8 19 4 4 -7 62 -9 62 -3 0 1 8 3 18 5 9 2 17 -2 17 -8 0 -8 3 -8 8
-2 10 14 32 17 32 4 0 -8 6 -7 17 2 15 12 16 12 8 -1 -8 -13 -7 -13 8 -1 14
11 17 11 17 0 0 -11 2 -11 10 1 9 13 10 13 10 0 0 -12 2 -12 9 -2 9 16 20 15
40 -1 12 -10 13 -9 6 3 -8 13 -7 13 8 1 13 -10 17 -10 17 -1 0 9 4 9 17 -1 11
-10 14 -10 9 -1 -4 6 -2 12 3 12 6 0 11 -6 11 -12 0 -8 3 -9 8 -3 8 12 42 16
42 6 0 -4 7 -8 15 -8 8 0 15 5 15 10 0 5 8 3 17 -4 11 -10 14 -10 9 -1 -4 6
-2 12 3 12 6 0 11 -6 11 -12 0 -10 2 -10 9 0 9 16 20 15 40 -1 12 -10 13 -9 6
3 -8 13 -7 13 8 1 13 -10 17 -10 17 -1 0 9 3 10 13 1 8 -6 17 -8 21 -4 4 4 24
8 44 9 52 1 156 13 232 25 268 44 459 144 490 258 24 91 -10 217 -75 277 -35
32 -119 77 -165 89 -111 27 -318 38 -407 21 -75 -14 -118 -45 -66 -47 15 0 42
-2 58 -5 243 -32 340 -64 413 -133 74 -72 77 -181 6 -260 -52 -58 -197 -125
-319 -146 -16 -2 -55 -9 -85 -15 -135 -23 -338 -30 -870 -30 -435 1 -450 1
-450 10 0 12 35 55 90 111 99 99 238 150 385 141 157 -10 309 -7 357 7 25 7
61 26 79 41 29 23 33 33 33 73 0 52 -18 79 -74 107 -118 59 -277 36 -403 -59
-57 -43 -75 -48 -169 -43 -26 2 -27 4 -16 27 6 14 15 25 19 25 4 0 10 11 13
24 3 14 13 32 22 40 8 9 16 25 17 37 1 11 27 44 57 72 87 81 211 192 250 223
19 16 37 31 40 34 3 4 57 49 120 100 63 52 117 97 120 100 3 3 37 30 75 60 39
30 72 57 75 60 6 6 151 114 290 216 120 88 399 274 411 274 5 0 9 5 9 10 0 6
4 10 9 10 6 0 38 17 73 38 174 106 169 104 198 93 37 -12 256 -145 405 -244
129 -86 441 -308 471 -335 11 -9 50 -40 87 -69 37 -28 87 -67 110 -86 23 -19
96 -79 162 -133 66 -54 122 -101 125 -104 3 -3 41 -36 85 -75 44 -38 91 -80
105 -93 14 -14 47 -43 73 -65 54 -47 157 -225 136 -237 -6 -4 -36 -6 -66 -4
-44 2 -64 9 -97 34 -79 60 -190 102 -271 103 -39 0 -117 -15 -145 -29 -52 -26
-72 -53 -78 -100 -4 -41 -2 -47 32 -79 20 -19 56 -40 79 -47 45 -13 233 -16
354 -6 137 11 284 -39 380 -130 58 -55 107 -119 96 -124 -15 -7 -1127 -1
-1198 6 -243 26 -410 78 -499 156 -53 47 -72 87 -71 150 1 68 29 118 88 159
47 32 175 77 240 86 23 2 51 7 62 9 11 2 50 7 88 11 71 7 84 19 40 36 -43 16
-101 23 -203 23 -177 0 -301 -28 -381 -86 -39 -28 -83 -73 -85 -88 0 -3 -7
-18 -14 -35 -7 -17 -13 -70 -14 -120 -1 -80 2 -95 24 -132 46 -75 141 -135
267 -167 169 -44 198 -45 1060 -43 452 1 825 6 829 10 4 4 3 7 -3 7 -6 0 -19
13 -30 29 -10 16 -50 63 -90 105 -121 129 -235 323 -258 439 -2 9 -6 20 -8 25
-23 36 -24 243 -2 331 30 121 67 182 192 312 71 73 113 123 107 129 -11 11
-104 -9 -189 -41 -246 -92 -402 -305 -381 -518 l7 -66 -43 40 c-23 22 -45 42
-48 45 -3 3 -36 32 -75 64 -38 33 -74 64 -80 70 -5 6 -26 23 -47 38 -20 15
-42 34 -50 41 -7 7 -74 61 -148 120 -74 58 -140 111 -147 117 -42 35 -336 246
-465 333 -127 86 -365 234 -442 274 -17 9 -14 13 26 37 25 14 50 26 56 26 5 0
12 4 14 9 7 19 283 150 433 206 232 86 393 115 645 116 177 1 273 -12 391 -51
237 -80 389 -268 346 -428 -12 -49 -73 -132 -123 -171 -81 -61 -212 -95 -364
-94 -113 1 -199 30 -243 83 -37 43 -24 65 51 85 142 40 202 81 197 135 -1 8
-3 28 -3 43 -1 16 -6 26 -11 22 -5 -3 -12 3 -16 14 -3 10 -29 29 -58 42 -43
20 -69 24 -152 24 -91 0 -105 -3 -160 -30 -45 -23 -64 -39 -79 -69 -58 -115
15 -257 176 -341 107 -57 160 -68 308 -69 269 0 437 74 537 236 43 69 45 76
45 143 1 70 -17 125 -59 187 -110 162 -313 264 -588 295 -148 16 -446 2 -580
-27 -22 -5 -41 -7 -43 -6 -2 2 13 21 33 42 82 88 114 188 81 252 -20 40 -94
83 -166 98 -52 11 -107 11 -118 -1 -3 -2 15 -23 40 -44 57 -51 77 -92 71 -145
-2 -23 -9 -43 -14 -44 -5 -2 -7 -8 -3 -13 12 -19 -109 -119 -233 -193 -70 -42
-168 -103 -218 -135 -49 -31 -130 -79 -178 -105 l-89 -47 5 138 c5 126 26 272
46 326 5 12 8 24 8 27 0 3 12 24 26 47 15 24 27 45 27 49 0 12 87 129 131 176
98 104 264 205 404 245 98 28 188 38 320 37 219 -2 365 -63 411 -173 27 -63 0
-152 -68 -225 -54 -59 -27 -100 62 -93 206 16 286 255 137 407 -116 119 -303
173 -596 170 -133 0 -159 -2 -291 -14 l-65 -7 45 28 c201 121 375 271 465 398
45 64 98 155 90 155 -3 0 1 10 10 23 8 12 16 32 18 42 2 11 7 27 10 35 20 51
26 164 14 245 -7 44 -37 128 -53 146 -8 8 -14 19 -14 23 0 15 -88 124 -145
180 -107 104 -223 185 -375 262 -137 69 -250 99 -250 66 0 -4 59 -48 131 -97
73 -49 169 -125 215 -170 82 -80 174 -204 174 -235 0 -9 3 -20 7 -24 38 -38
40 -257 4 -394 -12 -46 -32 -106 -45 -135 -21 -49 -112 -206 -125 -217 -3 -3
-31 -36 -62 -75 -31 -38 -78 -93 -105 -121 -117 -122 -288 -307 -375 -404 -52
-58 -103 -114 -114 -126 -11 -12 -29 -32 -40 -45 l-20 -24 -5 35 c-6 41 -4
225 5 360 15 237 30 307 82 400 65 112 181 230 293 296 67 40 263 124 288 124
5 0 15 6 21 14 10 11 8 16 -8 21 -21 6 -192 -1 -221 -10 -8 -3 -31 -7 -51 -9
-20 -3 -69 -15 -107 -28 l-70 -24 -47 93 c-26 52 -69 126 -96 165 l-48 71 0
403 1 403 -32 55 c-33 59 -50 76 -50 52z m54 -1001 c20 -30 36 -59 36 -64 0
-5 4 -11 9 -13 5 -1 26 -37 46 -78 61 -124 60 -116 12 -149 -61 -42 -111 -96
-138 -147 -13 -24 -26 -44 -29 -44 -3 0 -11 15 -19 33 -8 17 -47 65 -88 105
l-73 73 65 126 c60 116 121 212 136 213 3 0 23 -25 43 -55z"/>
<path d="M1806 1071 c-9 -13 20 -42 109 -108 226 -168 325 -215 398 -190 23 7
27 15 25 35 -5 47 -121 120 -346 218 -116 51 -174 65 -186 45z"/>
<path d="M3173 1016 c-226 -101 -342 -180 -327 -221 7 -17 51 -32 86 -29 58 6
171 73 365 216 81 60 98 78 82 89 -28 18 -68 7 -206 -55z"/>
</g>
</svg>
