<svg width="16" height="16" fill="none" xmlns="http://www.w3.org/2000/svg"><g clip-path="url(#State=Default, Position=Left__a)"><path fill="#DDD" d="M0 0h16v16H0z"/><path fill="#fff" d="M0 1h16v1H0z"/><path fill="#fff" d="M1 0h1v16H1z"/><path fill="gray" d="M0 14h16v1H0z"/><path fill="gray" d="M14 0h1v16h-1z"/><path fill-rule="evenodd" clip-rule="evenodd" d="M6.5 7.5v1H7V9h.5v.5H8v.5h.5v.5H9v-5h-.5V6H8v.5h-.5V7H7v.5h-.5Z" fill="#262626"/><path opacity=".8" fill="#262626" d="M6 8.5v-1h.5v1zm.5.5v-.5H7V9zm0-1.5V7H7v.5zM7 7v-.5h.5V7zm0 2.5V9h.5v.5zm.5.5v-.5H8v.5zm0-3.5V6H8v.5zM8 6v-.5h.5V6zm0 4.5V10h.5v.5zm.5.5v-.5H9v.5zm0-5.5V5H9v.5z"/><path opacity=".7" fill="#262626" d="M8.5 5v-.5h1V5zm0 6.5V11h1v.5zM9 11V5h.5v6zm-1 0v-.5h.5v.5z"/><path opacity=".4" fill="#262626" d="M9.5 11V5h.5v6z"/><path opacity=".2" fill="#262626" d="M5 8.5v-1h.5v1zm.5.5v-.5H6V9zm0-1.5V7H6v.5zM6 7v-.5h.5V7zm0 2.5V9h.5v.5zm.5.5v-.5H7v.5zm0-3.5V6H7v.5zM7 6v-.5h.5V6zm0 4.5V10h.5v.5zm.5.5v-.5H8v.5zm0-5.5V5H8v.5zM8 5v-.5h.5V5zm1.5 0v-.5h.5V5z"/><path opacity=".05" fill="#262626" d="M9.5 4.5V4h.5v.5zm0 7.5v-.5h.5v.5zM8 4.5V4h.5v.5zM8 12v-.5h.5v.5zm-1-1v-.5h.5v.5zm-1-1v-.5h.5v.5zM5 9v-.5h.5V9zm0-1.5V7h.5v.5zm1-1V6h.5v.5zm1-1V5h.5v.5z"/><path opacity=".2" fill="#262626" d="M8 11.5V11h.5v.5zm1.5 0V11h.5v.5zm-1 .5v-.5h1v.5zm0-7.5V4h1v.5z"/><path opacity=".7" fill="#262626" d="M7.5 10.5V10H8v.5zM7 10v-.5h.5v.5zm-.5-.5V9H7v.5zM6 9v-.5h.5V9zm0-1.5V7h.5v.5zm.5-.5v-.5H7V7zm.5-.5V6h.5v.5zm.5-.5v-.5H8V6zm.5-.5V5h.5v.5zm-2.5 3v-1H6v1z"/></g><path stroke="#262626" d="M.5.5h15v15H.5z"/><defs><clipPath id="State=Default, Position=Left__a"><path fill="#fff" d="M0 0h16v16H0z"/></clipPath></defs></svg>