<?xml version="1.0" standalone="no"?>
<!DOCTYPE svg PUBLIC "-//W3C//DTD SVG 20010904//EN"
 "http://www.w3.org/TR/2001/REC-SVG-20010904/DTD/svg10.dtd">
<svg version="1.0" xmlns="http://www.w3.org/2000/svg"
 width="676.000000pt" height="346.000000pt" viewBox="0 0 676.000000 346.000000"
 preserveAspectRatio="xMidYMid meet">
<metadata>
Created by potrace 1.16, written by Peter Selinger 2001-2019
</metadata>
<g transform="translate(0.000000,346.000000) scale(0.100000,-0.100000)"
fill="#000000" stroke="none">
<path d="M2365 2219 c-44 -25 -45 -31 -45 -311 l0 -269 25 -24 c31 -32 78 -33
109 -2 21 21 23 33 29 197 12 308 10 351 -16 382 -25 32 -72 44 -102 27z"/>
<path d="M2569 2215 c-49 -26 -52 -53 -44 -323 7 -267 11 -286 62 -298 33 -9
73 12 90 46 8 16 13 73 13 163 0 75 3 137 7 137 4 0 86 -79 184 -175 154 -153
180 -175 208 -175 21 0 41 9 56 25 l25 24 0 270 0 269 -31 26 c-38 33 -60 33
-98 0 l-31 -26 0 -156 0 -157 -167 166 c-214 212 -218 214 -274 184z"/>
<path d="M4506 2216 c-58 -17 -114 -60 -139 -107 -17 -31 -18 -52 -13 -213 6
-208 11 -222 96 -270 l55 -31 170 0 c166 0 171 1 222 27 28 15 62 42 75 60 22
31 23 43 26 213 3 171 2 182 -20 225 -18 35 -35 51 -79 73 -53 27 -66 29 -200
33 -104 3 -158 0 -193 -10z m334 -306 l0 -160 -165 0 -165 0 0 160 0 160 165
0 165 0 0 -160z"/>
<path d="M1157 2205 c-56 -21 -115 -67 -152 -120 -89 -125 -67 -312 48 -411
83 -70 113 -78 307 -82 l175 -4 28 26 c34 31 35 66 3 103 l-24 28 -159 5
c-136 4 -163 8 -193 26 -53 30 -80 78 -80 137 0 45 4 53 43 92 55 55 92 65
255 65 128 0 134 1 157 25 30 30 32 64 4 99 l-20 26 -177 -1 c-126 0 -188 -4
-215 -14z"/>
<path d="M1659 2201 c-24 -19 -24 -20 -27 -272 -2 -140 0 -264 3 -276 3 -12
15 -32 27 -43 21 -19 34 -20 293 -20 271 0 272 0 293 23 29 31 29 87 1 113
-19 17 -41 19 -240 22 l-219 3 0 213 c0 200 -1 214 -20 234 -26 28 -79 29
-111 3z"/>
<path d="M3242 2204 c-22 -15 -22 -17 -22 -294 l0 -279 26 -20 c37 -29 70 -26
105 9 l30 29 -3 265 c-3 243 -5 266 -22 285 -23 25 -81 28 -114 5z"/>
<path d="M3522 2194 c-91 -45 -97 -60 -100 -270 -4 -210 2 -235 68 -283 60
-43 123 -54 286 -49 126 4 144 7 190 31 89 45 94 61 94 290 l0 196 -32 37
c-57 65 -90 74 -284 74 -163 0 -172 -1 -222 -26z m388 -229 l0 -104 -36 24
c-44 30 -63 31 -97 5 -36 -29 -42 -64 -16 -106 l21 -35 -103 3 -104 3 -3 145
c-1 79 0 150 2 157 4 10 45 13 171 13 l165 0 0 -105z"/>
<path d="M5142 2194 c-69 -34 -95 -72 -100 -145 -5 -73 1 -99 34 -139 54 -64
91 -74 279 -80 l170 -5 3 -37 3 -38 -216 0 -217 0 -29 -29 c-36 -36 -37 -73
-4 -106 24 -25 24 -25 232 -25 220 1 252 6 317 51 53 36 66 67 66 153 0 71 -2
78 -32 112 -58 66 -100 78 -285 82 l-163 4 0 39 0 39 218 0 c215 0 219 0 240
23 26 27 29 73 6 105 -15 22 -19 22 -243 22 -224 0 -228 0 -279 -26z"/>
<path d="M4137 1773 c-4 -3 -7 -35 -7 -69 0 -52 3 -65 19 -74 33 -17 99 -12
121 10 22 22 27 88 10 121 -9 16 -22 19 -74 19 -34 0 -66 -3 -69 -7z"/>
<path d="M1285 1405 c-21 -20 -25 -34 -25 -79 0 -73 28 -108 85 -108 56 0 85
35 85 103 0 42 -5 55 -29 80 -38 37 -82 39 -116 4z m85 -5 c10 -5 23 -24 29
-41 20 -59 -10 -119 -61 -119 -58 0 -78 118 -25 155 25 18 32 18 57 5z"/>
<path d="M2080 1413 c1 -10 13 -56 28 -103 22 -67 32 -85 47 -85 14 0 24 19
47 90 15 50 28 93 28 98 0 12 -20 8 -24 -5 -2 -7 -14 -47 -27 -88 l-23 -75
-29 93 c-26 84 -48 119 -47 75z"/>
<path d="M3377 1419 c-21 -12 -47 -67 -47 -100 0 -41 31 -89 64 -97 37 -10 86
4 86 24 0 11 -4 12 -19 4 -11 -5 -31 -10 -45 -10 -56 0 -77 99 -31 145 27 28
37 30 65 15 12 -6 21 -7 25 -1 15 25 -64 40 -98 20z"/>
<path d="M3770 1325 c0 -63 4 -105 10 -105 6 0 10 34 10 83 l0 82 47 -82 c26
-46 53 -83 60 -83 10 0 13 25 13 105 0 63 -4 105 -10 105 -6 0 -10 -36 -10
-87 l0 -88 -51 88 c-28 48 -55 87 -60 87 -5 0 -9 -47 -9 -105z"/>
<path d="M3970 1325 c0 -87 3 -105 15 -105 12 0 15 18 15 105 0 87 -3 105 -15
105 -12 0 -15 -18 -15 -105z"/>
<path d="M4092 1420 c-30 -13 -55 -74 -48 -116 10 -51 42 -84 81 -84 45 0 65
9 65 28 0 12 -3 13 -12 4 -21 -21 -75 -15 -92 10 -25 35 -20 94 9 123 27 28
37 30 65 15 12 -6 21 -7 25 -1 7 12 -27 31 -52 30 -10 0 -28 -4 -41 -9z"/>
<path d="M4410 1325 l0 -105 60 0 c33 0 60 4 60 10 0 6 -22 10 -50 10 l-50 0
0 95 c0 57 -4 95 -10 95 -6 0 -10 -42 -10 -105z"/>
<path d="M1100 1415 c0 -3 11 -28 25 -55 16 -31 25 -66 25 -95 0 -33 4 -45 15
-45 11 0 15 11 15 40 0 25 11 63 30 100 22 43 26 60 17 60 -8 0 -22 -18 -32
-40 -10 -23 -22 -43 -26 -46 -4 -2 -17 16 -28 41 -11 25 -25 45 -30 45 -6 0
-11 -2 -11 -5z"/>
<path d="M1480 1344 c0 -41 5 -84 11 -95 14 -27 51 -39 86 -30 35 9 52 52 52
139 1 49 -2 62 -14 62 -12 0 -15 -15 -15 -78 0 -86 -8 -102 -52 -102 -36 0
-48 28 -48 116 0 36 -4 64 -10 64 -6 0 -10 -32 -10 -76z"/>
<path d="M1680 1320 c0 -82 3 -100 15 -100 11 0 15 12 15 45 0 37 3 45 19 45
11 0 27 -16 42 -45 13 -25 30 -45 36 -45 18 0 16 7 -8 47 l-21 34 21 23 c23
25 28 65 9 84 -7 7 -38 12 -70 12 l-58 0 0 -100z m100 72 c19 -16 21 -22 11
-40 -9 -16 -21 -22 -46 -22 -34 0 -35 1 -35 40 0 36 3 40 24 40 13 0 34 -8 46
-18z"/>
<path d="M1930 1320 l0 -100 65 0 c37 0 65 4 65 10 0 6 -22 10 -50 10 l-50 0
0 34 c0 32 2 35 40 41 22 4 40 11 40 16 0 5 -18 9 -40 9 -39 0 -40 1 -40 34 0
34 1 35 48 39 42 3 41 4 -15 5 l-63 2 0 -100z"/>
<path d="M2270 1320 l0 -100 60 0 c33 0 60 4 60 10 0 6 -22 10 -50 10 l-50 0
0 40 0 40 40 0 c22 0 40 5 40 10 0 6 -18 10 -40 10 -39 0 -40 1 -40 34 0 34 1
35 48 39 46 3 46 3 -10 5 l-58 2 0 -100z"/>
<path d="M2440 1320 c0 -60 4 -100 10 -100 6 0 10 18 10 40 0 55 31 55 62 0
13 -22 29 -40 36 -40 16 0 16 3 -9 45 l-22 36 22 23 c23 25 28 65 9 84 -7 7
-36 12 -65 12 l-53 0 0 -100z m95 45 c0 -27 -3 -30 -37 -33 -38 -3 -38 -3 -38
33 0 36 0 36 38 33 34 -3 37 -6 37 -33z"/>
<path d="M2620 1360 c19 -37 30 -75 30 -100 0 -22 5 -40 10 -40 6 0 10 17 10
38 0 24 11 59 30 93 34 61 35 69 16 69 -7 0 -21 -20 -30 -45 -10 -25 -21 -45
-25 -45 -5 0 -16 20 -25 45 -10 25 -24 45 -32 45 -11 0 -7 -15 16 -60z"/>
<path d="M2770 1320 l0 -100 45 0 c67 0 95 31 95 103 0 71 -25 97 -93 97 l-47
0 0 -100z m95 65 c51 -50 20 -145 -47 -145 l-28 0 0 85 c0 84 0 85 25 85 14 0
37 -11 50 -25z"/>
<path d="M2995 1408 c-23 -61 -55 -164 -55 -175 0 -24 18 -13 29 17 9 26 15
30 49 30 36 0 40 -3 46 -30 3 -18 12 -30 21 -30 19 0 19 -1 -18 105 -22 62
-37 91 -50 93 -9 2 -19 -2 -22 -10z m44 -90 c1 -13 -7 -18 -24 -18 -28 0 -30
7 -13 63 l12 40 12 -34 c7 -19 13 -42 13 -51z"/>
<path d="M3130 1360 c19 -37 30 -75 30 -100 0 -29 4 -40 15 -40 11 0 15 11 15
39 0 21 11 64 25 95 28 64 29 66 15 66 -6 0 -19 -20 -30 -45 -11 -25 -22 -45
-25 -45 -3 0 -15 20 -26 45 -11 25 -27 45 -35 45 -11 0 -7 -14 16 -60z"/>
<path d="M3530 1343 c0 -43 -3 -88 -6 -100 -6 -22 -4 -23 55 -23 34 0 61 4 61
10 0 6 -20 10 -45 10 l-45 0 0 90 c0 53 -4 90 -10 90 -6 0 -10 -33 -10 -77z"/>
<path d="M3680 1320 c0 -82 3 -100 15 -100 12 0 15 18 15 100 0 82 -3 100 -15
100 -12 0 -15 -18 -15 -100z"/>
<path d="M4269 1393 c-6 -15 -19 -53 -29 -83 -10 -30 -21 -63 -25 -72 -5 -13
-3 -18 8 -18 9 0 18 13 22 30 6 28 10 30 50 30 39 0 43 -2 49 -30 3 -17 12
-30 20 -30 12 0 8 21 -18 98 -36 105 -57 126 -77 75z m39 -25 c6 -18 13 -41
17 -50 6 -15 1 -18 -29 -18 -20 0 -36 3 -36 7 0 10 32 93 36 93 2 0 7 -15 12
-32z"/>
<path d="M4630 1320 l0 -100 49 0 c63 0 80 7 92 37 11 28 -4 63 -26 63 -19 0
-19 16 0 24 18 7 20 47 3 64 -7 7 -36 12 -65 12 l-53 0 0 -100z m100 69 c16
-28 -4 -49 -46 -49 -31 0 -34 3 -34 28 0 36 6 42 41 42 18 0 32 -7 39 -21z m1
-79 c21 -12 25 -40 7 -58 -7 -7 -29 -12 -50 -12 -38 0 -38 0 -38 40 0 38 2 40
31 40 17 0 39 -5 50 -10z"/>
<path d="M4820 1337 c0 -95 15 -120 70 -120 55 0 70 25 70 120 0 49 -4 83 -10
83 -6 0 -10 -30 -10 -71 0 -86 -11 -109 -50 -109 -39 0 -50 23 -50 109 0 41
-4 71 -10 71 -6 0 -10 -34 -10 -83z"/>
<path d="M5020 1320 l0 -100 44 0 c24 0 52 3 61 6 24 10 45 58 45 104 0 60
-33 90 -100 90 l-50 0 0 -100z m105 59 c25 -25 25 -91 0 -119 -10 -11 -31 -20
-47 -20 l-28 0 0 86 0 86 28 -7 c15 -3 36 -15 47 -26z"/>
<path d="M5220 1320 l0 -100 44 0 c80 0 123 64 96 144 -14 44 -35 56 -94 56
l-46 0 0 -100z m103 58 c24 -28 22 -93 -3 -118 -11 -11 -33 -20 -50 -20 l-30
0 0 78 c0 43 3 82 7 86 12 12 57 -3 76 -26z"/>
<path d="M5410 1360 c19 -37 30 -75 30 -100 0 -29 4 -40 15 -40 11 0 15 11 15
40 0 22 11 65 25 96 29 65 28 64 15 64 -6 0 -19 -20 -30 -45 -11 -25 -22 -45
-25 -45 -3 0 -15 20 -26 45 -11 25 -27 45 -35 45 -11 0 -7 -14 16 -60z"/>
</g>
</svg>
