<svg width="16" height="16" fill="none" xmlns="http://www.w3.org/2000/svg"><g clip-path="url(#State=Default, Position=Down__a)"><path fill="#DDD" d="M0 0h16v16H0z"/><path fill="#fff" d="M0 1h16v1H0z"/><path fill="#fff" d="M1 0h1v16H1z"/><path fill="gray" d="M0 14h16v1H0z"/><path fill="gray" d="M14 0h1v16h-1z"/><path fill-rule="evenodd" clip-rule="evenodd" d="M8.5 9h-1v-.5H7V8h-.5v-.5H6V7h-.5v-.5h5V7H10v.5h-.5V8H9v.5h-.5V9Z" fill="#262626"/><path opacity=".8" fill="#262626" d="M7.5 9.5h1V9h-1zM7 9h.5v-.5H7zm1.5 0H9v-.5h-.5zm.5-.5h.5V8H9zm-2.5 0H7V8h-.5zM6 8h.5v-.5H6zm3.5 0h.5v-.5h-.5zm.5-.5h.5V7H10zm-4.5 0H6V7h-.5zM5 7h.5v-.5H5zm5.5 0h.5v-.5h-.5z"/><path opacity=".7" fill="#262626" d="M11 7h.5V6H11zM4.5 7H5V6h-.5zm.5-.5h6V6H5zm0 1h.5V7H5z"/><path opacity=".4" fill="#262626" d="M5 6h6v-.5H5z"/><path opacity=".2" fill="#262626" d="M7 10h.5v-.5H7zm1.5 0H9v-.5h-.5zm.5-.5h.5V9H9zm-2.5 0H7V9h-.5zM6 9h.5v-.5H6zm3.5 0h.5v-.5h-.5zm.5-.5h.5V8H10zm-4.5 0H6V8h-.5zM5 8h.5v-.5H5zm5.5 0h.5v-.5h-.5zm.5-.5h.5V7H11zM11 6h.5v-.5H11z"/><path opacity=".05" fill="#262626" d="M11.5 6h.5v-.5h-.5zM4 6h.5v-.5H4zm7.5 1.5h.5V7h-.5zM4 7.5h.5V7H4zm1 1h.5V8H5zm1 1h.5V9H6zm3.5 0h.5V9h-.5zm1-1h.5V8h-.5z"/><path opacity=".2" fill="#262626" d="M4.5 7.5H5V7h-.5zm0-1.5H5v-.5h-.5zM4 7h.5V6H4zm7.5 0h.5V6h-.5z"/><path opacity=".7" fill="#262626" d="M5.5 8H6v-.5h-.5zm.5.5h.5V8H6zm.5.5H7v-.5h-.5zm.5.5h.5V9H7zm1.5 0H9V9h-.5zM9 9h.5v-.5H9zm.5-.5h.5V8h-.5zM10 8h.5v-.5H10zm.5-.5h.5V7h-.5zm-3 2.5h1v-.5h-1z"/><path opacity=".2" fill="#262626" d="M7.5 10.5h1V10h-1z"/><path opacity=".05" fill="#262626" d="M7 10.5h.5V10H7zm1.5 0H9V10h-.5z"/></g><path stroke="#262626" d="M.5.5h15v15H.5z"/><defs><clipPath id="State=Default, Position=Down__a"><path fill="#fff" d="M0 0h16v16H0z"/></clipPath></defs></svg>