<svg width="36" height="36" viewBox="0 0 36 36" fill="none" xmlns="http://www.w3.org/2000/svg">
<path fill-rule="evenodd" clip-rule="evenodd" d="M12 4.5H13.5V6V7.5H15V6H16.5H18H19.5H21V7.5H22.5V6V4.5H24H25.5V6H27H28.5H30V7.5H31.5V9V10.5H33V12V13.5H34.5V15V16.5V18V19.5H36V21V22.5V24V25.5V27H34.5V28.5H33H31.5V30H30H28.5V31.5H27H25.5V30H24V28.5H25.5V27H27V25.5H25.5V27H24H22.5H21V28.5H19.5H18H16.5H15V27H13.5H12H10.5V25.5H9V27H10.5V28.5H12V30H10.5V31.5H9H7.5V30H6H4.5V28.5H3H1.5V27H0V25.5V24V22.5V21V19.5H1.5V18V16.5V15V13.5H3V12V10.5H4.5V9V7.5H6V6H7.5H9H10.5V4.5H12ZM24 16.5H25.5V18V19.5V21V22.5H24H22.5H21V21V19.5V18V16.5H22.5H24ZM10.5 16.5H12H13.5H15V18V19.5V21V22.5H13.5H12H10.5V21V19.5V18V16.5Z" fill="black"/>
</svg>
