<svg width="65" height="64" viewBox="0 0 65 64" fill="none" xmlns="http://www.w3.org/2000/svg">
<path fill-rule="evenodd" clip-rule="evenodd" d="M51.9998 8.16669H8.6665V53.6667H51.9998V8.16669ZM56.3333 12.4999H52V53.6666H56.3333V12.4999Z" fill="white"/>
<path fill-rule="evenodd" clip-rule="evenodd" d="M8.66667 6H49.8333V8.16667H45.5V23.3333H43.3333V8.16667H21.6667V23.3333H19.5V8.16667H8.66667V6ZM8.66667 53.6667H6.5V8.16667H8.66667V53.6667ZM17.3333 34.1667H15.1667V53.6667L8.66667 53.6667V55.8333V57.0033H56.3367V55.8333L56.3333 55.8333L56.3333 54.6667H59.5033V14.6667H56.3333L56.3333 12.5H54.1667V10.3333H52V8.16667H49.8333L49.8333 10.3333H52V12.5H54.1667V14.6667H56.3333L56.3333 53.6667L49.8333 53.6667V34.1667H47.6667V32H17.3333L17.3333 34.1667ZM17.3333 34.1667V53.6667H47.6667V34.1667H17.3333ZM21.6667 23.3333H43.3333V25.5H21.6667V23.3333ZM32.5 12.5H34.6667V19H32.5V12.5ZM39 19V21.1667H34.6667V19H39ZM39 12.5H41.1667V19H39V12.5ZM39 12.5V10.3333H34.6667V12.5H39Z" fill="black"/>
</svg>
