<svg width="65" height="64" viewBox="0 0 65 64" fill="none" xmlns="http://www.w3.org/2000/svg">
<path fill-rule="evenodd" clip-rule="evenodd" d="M15.4999 10.4H29.8999V12.8L32.2999 12.8V15.2H13.0999V12.8L15.4999 12.8V10.4ZM58.6999 53.6V17.6H5.8999V53.6H58.6999Z" fill="white"/>
<path fill-rule="evenodd" clip-rule="evenodd" d="M32.3 8H13.1V10.4H10.7V12.8H8.3V15.2H5.9V17.6H3.5V53.6V57H61.1V53.6L61.1 17.6H58.7V15.2L37.1 15.2V12.8H34.7V10.4H32.3V8ZM8.3 17.6H58.7V53.6H5.9V17.6H8.3ZM13.1 15.2V12.8H15.5V10.4H29.9V12.8H32.3V15.2H13.1Z" fill="black"/>
</svg>
