<svg width="64" height="64" viewBox="0 0 64 64" fill="none" xmlns="http://www.w3.org/2000/svg">
<path fill-rule="evenodd" clip-rule="evenodd" d="M40 9H24V11H40V9ZM13 13H51V15H13V13ZM15 17H49V61H15V17Z" fill="black"/>
<path fill-rule="evenodd" clip-rule="evenodd" d="M40 6H24V8H40V6ZM13 10H51V12H13V10ZM15 14H49V58H15V14Z" fill="white"/>
<path fill-rule="evenodd" clip-rule="evenodd" d="M24 4H40V6H24V4ZM13 10V8H22V6H24V8H40V6H42V8H51V10H13ZM15 58H13V14H11V12V10H13V12H51V10H53V12V14H51V58H49V14H15V58ZM15 58H49V60H15V58ZM22 18H20V20H18V54H20V56H22V54H20V20H22V18ZM30 18H28V20H26V54H28V56H30V54H28V20H30V18ZM36 18H38V20H36V18ZM36 54H34V20H36V54ZM36 54H38V56H36V54ZM46 18H44V20H42V54H44V56H46V54H44V20H46V18Z" fill="black"/>
</svg>
