<svg width="158" height="38" viewBox="0 0 158 38" fill="none" xmlns="http://www.w3.org/2000/svg">
<rect width="2" height="2" fill="#CE2727"/>
<rect y="4" width="2" height="2" fill="#F0F3F7"/>
<rect width="2" height="2" fill="#CE2727"/>
<rect y="4" width="2" height="2" fill="#F0F3F7"/>
<rect y="16" width="2" height="2" fill="#CE2727"/>
<rect y="20" width="2" height="2" fill="#F0F3F7"/>
<rect y="8" width="2" height="2" fill="#CE2727"/>
<rect y="12" width="2" height="2" fill="#F0F3F7"/>
<rect y="24" width="2" height="2" fill="#CE2727"/>
<rect y="28" width="2" height="2" fill="#F0F3F7"/>
<rect y="32" width="2" height="2" fill="#CE2727"/>
<rect y="36" width="2" height="2" fill="#F0F3F7"/>
<rect x="38" y="36" width="2" height="2" transform="rotate(90 38 36)" fill="#CE2727"/>
<rect x="34" y="36" width="2" height="2" transform="rotate(90 34 36)" fill="#F0F3F7"/>
<rect x="46" y="36" width="2" height="2" transform="rotate(90 46 36)" fill="#CE2727"/>
<rect x="42" y="36" width="2" height="2" transform="rotate(90 42 36)" fill="#F0F3F7"/>
<rect x="54" y="36" width="2" height="2" transform="rotate(90 54 36)" fill="#CE2727"/>
<rect x="50" y="36" width="2" height="2" transform="rotate(90 50 36)" fill="#F0F3F7"/>
<rect x="62" y="36" width="2" height="2" transform="rotate(90 62 36)" fill="#CE2727"/>
<rect x="58" y="36" width="2" height="2" transform="rotate(90 58 36)" fill="#F0F3F7"/>
<rect x="70" y="36" width="2" height="2" transform="rotate(90 70 36)" fill="#CE2727"/>
<rect x="66" y="36" width="2" height="2" transform="rotate(90 66 36)" fill="#F0F3F7"/>
<rect x="78" y="36" width="2" height="2" transform="rotate(90 78 36)" fill="#CE2727"/>
<rect x="74" y="36" width="2" height="2" transform="rotate(90 74 36)" fill="#F0F3F7"/>
<rect x="86" y="36" width="2" height="2" transform="rotate(90 86 36)" fill="#CE2727"/>
<rect x="82" y="36" width="2" height="2" transform="rotate(90 82 36)" fill="#F0F3F7"/>
<rect x="94" y="36" width="2" height="2" transform="rotate(90 94 36)" fill="#CE2727"/>
<rect x="90" y="36" width="2" height="2" transform="rotate(90 90 36)" fill="#F0F3F7"/>
<rect x="102" y="36" width="2" height="2" transform="rotate(90 102 36)" fill="#CE2727"/>
<rect x="98" y="36" width="2" height="2" transform="rotate(90 98 36)" fill="#F0F3F7"/>
<rect x="110" y="36" width="2" height="2" transform="rotate(90 110 36)" fill="#CE2727"/>
<rect x="106" y="36" width="2" height="2" transform="rotate(90 106 36)" fill="#F0F3F7"/>
<rect x="118" y="36" width="2" height="2" transform="rotate(90 118 36)" fill="#CE2727"/>
<rect x="114" y="36" width="2" height="2" transform="rotate(90 114 36)" fill="#F0F3F7"/>
<rect x="126" y="36" width="2" height="2" transform="rotate(90 126 36)" fill="#CE2727"/>
<rect x="122" y="36" width="2" height="2" transform="rotate(90 122 36)" fill="#F0F3F7"/>
<rect x="134" y="36" width="2" height="2" transform="rotate(90 134 36)" fill="#CE2727"/>
<rect x="130" y="36" width="2" height="2" transform="rotate(90 130 36)" fill="#F0F3F7"/>
<rect x="142" y="36" width="2" height="2" transform="rotate(90 142 36)" fill="#CE2727"/>
<rect x="138" y="36" width="2" height="2" transform="rotate(90 138 36)" fill="#F0F3F7"/>
<rect x="150" y="36" width="2" height="2" transform="rotate(90 150 36)" fill="#CE2727"/>
<rect x="146" y="36" width="2" height="2" transform="rotate(90 146 36)" fill="#F0F3F7"/>
<rect x="158" y="36" width="2" height="2" transform="rotate(90 158 36)" fill="#CE2727"/>
<rect x="154" y="36" width="2" height="2" transform="rotate(90 154 36)" fill="#F0F3F7"/>
<rect x="22" y="36" width="2" height="2" transform="rotate(90 22 36)" fill="#CE2727"/>
<rect x="18" y="36" width="2" height="2" transform="rotate(90 18 36)" fill="#F0F3F7"/>
<rect x="30" y="36" width="2" height="2" transform="rotate(90 30 36)" fill="#CE2727"/>
<rect x="26" y="36" width="2" height="2" transform="rotate(90 26 36)" fill="#F0F3F7"/>
<rect x="14" y="36" width="2" height="2" transform="rotate(90 14 36)" fill="#CE2727"/>
<rect x="10" y="36" width="2" height="2" transform="rotate(90 10 36)" fill="#F0F3F7"/>
<rect x="6" y="36" width="2" height="2" transform="rotate(90 6 36)" fill="#CE2727"/>
<rect x="2" y="36" width="2" height="2" transform="rotate(90 2 36)" fill="#F0F3F7"/>
<rect x="4" width="6" height="2" fill="#969696" fill-opacity="0.8"/>
<rect x="4" y="4" width="6" height="2" fill="#CE2F0C"/>
<rect x="4" y="6" width="6" height="2" fill="#C64A15"/>
<rect x="4" y="8" width="6" height="2" fill="#D65F1D"/>
<rect x="4" y="10" width="6" height="2" fill="#D67023"/>
<rect x="4" y="12" width="6" height="2" fill="#C4761F"/>
<rect x="4" y="14" width="6" height="2" fill="#CA8624"/>
<rect x="4" y="16" width="6" height="2" fill="#D5B135"/>
<rect x="4" y="18" width="6" height="2" fill="#C3D43C"/>
<rect x="4" y="20" width="6" height="2" fill="#99DB38"/>
<rect x="4" y="22" width="6" height="2" fill="#7DD432"/>
<rect x="4" y="24" width="6" height="2" fill="#15CA28"/>
<rect x="4" y="26" width="6" height="2" fill="#3CBF26"/>
<rect x="4" y="28" width="6" height="2" fill="#3BBC26"/>
</svg>