<?xml version="1.0" standalone="no"?>
<!DOCTYPE svg PUBLIC "-//W3C//DTD SVG 20010904//EN"
 "http://www.w3.org/TR/2001/REC-SVG-20010904/DTD/svg10.dtd">
<svg version="1.0" xmlns="http://www.w3.org/2000/svg"
 width="260.000000pt" height="260.000000pt" viewBox="0 0 260.000000 260.000000"
 preserveAspectRatio="xMidYMid meet">
<metadata>
Created by potrace 1.14, written by Peter Selinger 2001-2017
</metadata>
<g transform="translate(0.000000,260.000000) scale(0.100000,-0.100000)"
fill="#000000" stroke="none">
<path d="M1307 2593 c-2 -5 -3 -29 -3 -55 l2 -48 -57 0 -56 0 1 -52 1 -53 -50
-2 c-27 0 -52 -2 -55 -2 -3 -1 -5 -25 -5 -53 l0 -53 -50 0 -50 0 -3 -107 -3
-108 -54 0 -55 0 0 -55 0 -55 -54 0 -54 0 -1 -101 c-1 -56 -4 -105 -7 -110 -3
-6 -23 -8 -43 -5 -21 2 -43 1 -48 -3 -5 -3 -10 -50 -9 -103 0 -54 -3 -100 -6
-104 -4 -3 -26 -7 -50 -9 -23 -1 -46 -3 -49 -4 -4 0 -6 -22 -5 -48 l1 -48 -50
-3 c-27 -2 -52 -7 -55 -12 -3 -4 -5 -54 -4 -109 l0 -101 -53 0 -53 0 0 -49 c0
-54 -4 -58 -68 -56 l-43 0 3 -55 3 -55 475 -1 c261 -1 480 -2 485 -3 7 -1 10
-167 10 -486 l0 -485 55 0 56 0 -2 55 -1 55 53 0 53 0 3 53 3 52 50 0 50 0 5
55 5 55 50 0 50 0 3 108 3 107 52 0 53 0 -1 43 c-1 64 1 67 59 67 l52 0 -1
107 0 108 45 1 c25 1 50 2 55 3 6 1 9 42 9 106 -2 116 -7 107 69 108 l37 0 0
54 0 53 55 0 55 0 0 110 0 110 55 0 55 0 0 54 0 54 53 -2 53 -2 0 55 -1 56
-475 1 c-261 1 -481 2 -487 3 -10 1 -13 105 -13 486 l0 485 -49 0 c-28 0 -52
-3 -54 -7z"/>
</g>
</svg>
