<svg version="1" xmlns="http://www.w3.org/2000/svg" width="1158.667" height="1158.667" viewBox="0 0 869.000000 869.000000"><path d="M526.5 109c-7.6 1.2-29 9.1-39.6 14.7-23 12-35 19.1-42.4 25-4.8 3.9-13.2 9-21 12.9-7.1 3.5-15.9 8-19.5 9.9-8.5 4.6-18.3 7.6-37.1 11.6-13 2.7-18.4 3.3-34.9 3.9-10.7.3-27.2.2-36.5-.3-16.1-.9-17.5-.8-24.5 1.3-15.7 4.6-18.7 10-21 38-1.3 16.6-3 60.6-3 79.2V320h5.6c3 0 14-1.8 24.2-4 19.5-4.1 41.2-8 44.7-7.9 3.7 0-26.7 14.5-51.2 24.4-13.3 5.3-24.4 10.4-24.7 11.2-.3.8-.9 9.4-1.2 19.1-.3 9.7-1.2 22.4-1.9 28.2-2.2 16.3-2.8 25-1.9 25 1.3 0 60.9-17.5 66.4-19.5 2.5-.9 9-2.7 14.5-4 5.5-1.3 12-3.1 14.5-4 6-2.2 31-9.5 32.4-9.5.6 0-3.8 2.3-9.9 5.1-6 2.8-20.2 9.6-31.5 14.9-25.2 12.1-62.5 28-82.5 35.3-10 3.6-23 9.6-39 17.9-108 56.3-115.6 59.9-175.7 83.6-6.5 2.5-11.8 4.9-11.8 5.3 0 3.2 37.9 3.6 51 .5 3.6-.8 12.8-2.7 20.5-4.1 22.9-4.3 84.1-21.5 107.8-30.2 3.8-1.4 9.9-3.4 13.5-4.3 11.5-3.2 37-12.4 54.7-19.9 9.4-4 24.6-10.4 33.9-14.2 9.3-3.8 19.4-8.3 22.5-10 3.1-1.6 13.3-5.9 22.6-9.4 28.8-10.8 80.5-31.9 96.1-39.3 8.2-3.8 19.6-9.1 25.4-11.7 32.5-14.7 42.2-20.8 60.9-38.7 10.7-10.2 16-16.3 25.4-29.1 6.4-8.9 16.4-22.5 22.1-30.2 13.8-18.7 17.4-24.2 23.7-35.9l5.3-9.9-1.8-6.8c-.9-3.7-3.3-10.7-5.2-15.5-1.9-4.9-7.1-19.7-11.5-32.9-4.5-13.2-10-29.2-12.4-35.5-2.4-6.3-6.6-17.9-9.4-25.7-6.3-18-11.2-27-15.7-28.9-3.5-1.5-12.7-1.6-20.9-.4zM842.5 192.6c-19.8 13.5-22.1 14.7-70.5 39.1-29.6 14.9-47 23.1-54.5 25.6-14.5 4.8-30.1 11.4-29.8 12.6.1.5 1.6 3.2 3.2 6 5.6 9.3 8.7 26.5 10.2 54.6 1.2 22.9.6 29.8-4.1 52.8-1.7 8.7-2.9 16.1-2.6 16.4 1 1 18.1-9.1 24.8-14.6 3.6-3.1 11.4-8.7 17.2-12.4 27.8-17.9 50.2-41.2 70-72.7 9.6-15.2 22.1-37.7 24.7-44.2 1-2.6 3.2-7.4 4.8-10.5 1.5-3.2 4.7-11 6.9-17.3 2.2-6.3 5.4-15.1 7.1-19.5 5.9-15.1 6.9-18 7.6-21.8.3-2 .2-3.7-.2-3.6-.4 0-7.1 4.3-14.8 9.5z"/><path d="M634.1 210.2c-20.2 46.6-24.6 55.5-34.4 70.3-32.1 48.2-46.5 67.3-65.1 86.5-5 5.2-11.8 12.5-14.9 16.1-11.2 13-32.7 24.6-70.7 38.4-16.5 6-28.2 10.8-63 26-13.5 5.9-34.6 14.4-47 19-12.4 4.6-27.1 10.1-32.7 12.3-5.6 2.2-14.9 5.4-20.5 7.1-11 3.4-23.8 8.9-23.8 10.4 0 2.6 7.3 26.2 10 32.2 6.7 15 10.9 26.4 12.9 35.2 1.8 8.3 2 10.5 1.1 22.2-1.7 21.4-7.1 36.4-19.8 54.9-3.9 5.7-6.1 7.9-9.9 9.8-7.6 3.7-9.6 6.4-10.1 13.5-.7 9.7 1.2 12.6 11.1 17.6 4.5 2.2 10.9 6.3 14.2 9 17.9 14.9 55.9 34.8 82 43.1 24.8 7.8 61.8 14.6 86 15.7 15.4.7 37.1-2.1 62-7.9 35.4-8.3 56.2-16.9 83.7-34.4 25.9-16.5 36.7-24.9 56.1-43.6 10.4-9.9 19.4-18 20-17.8.7.2 4.9 1.7 9.5 3.5 7 2.7 9.7 4.5 17.5 11.6 5 4.6 10.5 10.2 12.1 12.5 1.7 2.2 5.1 6.6 7.7 9.6 5.1 6.1 8.4 11.1 14 21.4 3.7 6.8 3.7 6.8 4.4 3.7 1.2-5.7.7-31.5-.9-45.6-2.7-22.3-8.4-40.7-15.1-48.7-1.4-1.7-2.5-3.2-2.3-3.3.9-.8 13.4 1.8 19.8 4.1 4.1 1.4 11 3.7 15.2 5 7.8 2.3 30.5 14 39.1 20 2.6 1.9 5 3.4 5.3 3.4 1.4 0-1-10-3.9-16.5-3.3-7.2-10.1-17.9-14.6-22.8-4.3-4.7-23.5-16.5-34.3-21.2-5.9-2.5-12.8-4.7-16-5.1-3.2-.4-5.5-1-5.2-1.5.2-.5 4.8-3.7 10.2-7.2 11.1-7.4 17.9-14.1 21.7-21.8 1.5-3 3.6-6.6 4.6-8 4.2-5.9 10.9-26.1 12.4-37.2.6-4.7.6-4.8-1.5-3.7-1.1.6-4.2 3.2-6.8 5.6-5 4.9-18.5 16.3-24.2 20.6-4.1 3.1-26.2 15.9-26.7 15.5-.1-.2 1.3-3.3 3.2-6.9 4.7-8.8 10.5-31.5 10.5-41 0-7 0-7.1-2-5.3-1.1 1-4 4.6-6.6 8-5.4 7.4-10 11.4-16.8 14.4-2.7 1.1-5 2-5.1 1.9-.1-.2-.7-5.7-1.3-12.3-1.5-15.5-7.4-47.5-10-54.1l-2-5 6.9-22c9.7-30.7 11.3-40.7 10.5-64.9-1.2-37.4-4.9-58.2-13.6-77.4-8.4-18.4-15.7-32.7-20.6-40.3-2.4-3.8-5.3-8.7-6.5-11-2.5-4.9-12-17.7-13.2-17.7-.4-.1-1.6 1.8-2.6 4.1zM435.9 468c16.5 5 34.9 26.6 41.6 48.8 3 9.9 3.3 11.6 4.4 24.2 1.2 12.6-.1 19.8-5.3 31.2-3.5 7.5-12.8 19.8-16.6 21.8-1.7.9-1.8.7-.8-2.3 2.9-9.4-1.9-40-8.5-53.2-4.8-9.7-8.8-14.4-15.9-19.1-6.5-4.2-6.9-4.3-10-2.9-5.8 2.4-7.3 6.8-7.1 21.4.1 11.8.4 13.3 3.8 23.1 7.7 22 15.5 34.4 24 38.4l4.9 2.2-11.4 5.6c-13.4 6.6-28 11.6-36.1 12.5-6.8.7-21.4-1.3-24.7-3.4-8.7-5.4-16.2-15.5-18.6-25-5.4-20.8 5.6-67.4 21.3-90.3 6.2-9.1 21.2-25.1 28-29.8 7.9-5.6 15.9-6.5 27-3.2z"/></svg>