<svg width="16" height="16" fill="none" xmlns="http://www.w3.org/2000/svg"><g clip-path="url(#State=Default, Position=Right__a)"><path fill="#DDD" d="M0 0h16v16H0z"/><path fill="#fff" d="M0 1h16v1H0z"/><path fill="#fff" d="M1 0h1v16H1z"/><path fill="gray" d="M0 14h16v1H0z"/><path fill="gray" d="M14 0h1v16h-1z"/><path fill-rule="evenodd" clip-rule="evenodd" d="M9.5 8.5v-1H9V7h-.5v-.5H8V6h-.5v-.5H7v5h.5V10H8v-.5h.5V9H9v-.5h.5Z" fill="#262626"/><path opacity=".8" fill="#262626" d="M10 7.5v1h-.5v-1zM9.5 7v.5H9V7zm0 1.5V9H9v-.5zM9 9v.5h-.5V9zm0-2.5V7h-.5v-.5zM8.5 6v.5H8V6zm0 3.5v.5H8v-.5zM8 10v.5h-.5V10zm0-4.5V6h-.5v-.5zM7.5 5v.5H7V5zm0 5.5v.5H7v-.5z"/><path opacity=".7" fill="#262626" d="M7.5 11v.5h-1V11zm0-6.5V5h-1v-.5zM7 5v6h-.5V5zm1 0v.5h-.5V5z"/><path opacity=".4" fill="#262626" d="M6.5 5v6H6V5z"/><path opacity=".2" fill="#262626" d="M11 7.5v1h-.5v-1zm-.5-.5v.5H10V7zm0 1.5V9H10v-.5zM10 9v.5h-.5V9zm0-2.5V7h-.5v-.5zM9.5 6v.5H9V6zm0 3.5v.5H9v-.5zM9 10v.5h-.5V10zm0-4.5V6h-.5v-.5zM8.5 5v.5H8V5zm0 5.5v.5H8v-.5zM8 11v.5h-.5V11zm-1.5 0v.5H6V11z"/><path opacity=".05" fill="#262626" d="M6.5 11.5v.5H6v-.5zm0-7.5v.5H6V4zM8 11.5v.5h-.5v-.5zM8 4v.5h-.5V4zm1 1v.5h-.5V5zm1 1v.5h-.5V6zm1 1v.5h-.5V7zm0 1.5V9h-.5v-.5zm-1 1v.5h-.5v-.5zm-1 1v.5h-.5v-.5z"/><path opacity=".2" fill="#262626" d="M8 4.5V5h-.5v-.5zm-1.5 0V5H6v-.5zm1-.5v.5h-1V4zm0 7.5v.5h-1v-.5z"/><path opacity=".7" fill="#262626" d="M8.5 5.5V6H8v-.5zM9 6v.5h-.5V6zm.5.5V7H9v-.5zm.5.5v.5h-.5V7zm0 1.5V9h-.5v-.5zm-.5.5v.5H9V9zm-.5.5v.5h-.5v-.5zm-.5.5v.5H8V10zm-.5.5v.5h-.5v-.5zm2.5-3v1H10v-1z"/></g><path stroke="#262626" d="M.5.5h15v15H.5z"/><defs><clipPath id="State=Default, Position=Right__a"><path fill="#fff" d="M0 0h16v16H0z"/></clipPath></defs></svg>