<svg width="112" height="48" viewBox="0 0 112 48" fill="none" xmlns="http://www.w3.org/2000/svg">
<rect x="1" y="1" width="110" height="46" rx="1" fill="#F8F8F8" stroke="#393939" stroke-width="2"/>
<path d="M17.2 22V19.51H13.915V10.9H11.08V22H17.2ZM26.2196 17.935C26.2196 15.43 24.3746 13.39 21.8246 13.39C19.3796 13.39 17.4596 15.445 17.4596 17.86C17.4596 20.29 19.4396 22.27 21.8696 22.27C23.7446 22.27 25.2146 21.055 25.9346 19.39H23.3846C22.9796 19.9 22.5446 20.17 21.8696 20.17C20.8946 20.17 20.0696 19.585 19.9196 18.595H26.1596C26.2046 18.37 26.2196 18.16 26.2196 17.935ZM23.7296 16.915H19.9496C20.1446 16.015 20.9396 15.49 21.8396 15.49C22.7396 15.49 23.5346 16.015 23.7296 16.915ZM40.0868 22V17.455C40.0868 16.18 40.1318 15.19 39.1868 14.23C38.6018 13.63 37.8218 13.39 36.9968 13.39C35.8718 13.39 34.9568 13.93 34.3568 14.875C33.8468 13.93 33.0368 13.39 31.9568 13.39C31.0118 13.39 30.1418 13.705 29.6618 14.56H29.6318V13.675H27.3068V22H29.7968V17.575C29.7968 16.6 30.0518 15.73 31.2068 15.73C32.2568 15.73 32.4518 16.615 32.4518 17.47V22H34.9418V17.455C34.9418 16.51 35.2118 15.73 36.3218 15.73C37.4768 15.73 37.5968 16.66 37.5968 17.575V22H40.0868ZM50.1181 17.83C50.1181 15.28 48.1831 13.405 45.6331 13.405C43.0831 13.405 41.1481 15.28 41.1481 17.83C41.1481 20.38 43.0831 22.255 45.6331 22.255C48.1831 22.255 50.1181 20.38 50.1181 17.83ZM47.6281 17.83C47.6281 18.955 46.7881 19.93 45.6331 19.93C44.4781 19.93 43.6381 18.955 43.6381 17.83C43.6381 16.705 44.4781 15.73 45.6331 15.73C46.7881 15.73 47.6281 16.705 47.6281 17.83ZM58.9383 22V16.795C58.9383 15.82 58.7733 14.77 57.9783 14.11C57.4383 13.66 56.5533 13.39 55.8483 13.39C54.8433 13.39 54.1083 13.705 53.5833 14.56H53.5533V13.675H51.2283V22H53.7183V17.47C53.7183 16.48 53.9883 15.73 55.1433 15.73C56.2683 15.73 56.4483 16.525 56.4483 17.455V22H58.9383ZM66.6459 19.45C66.6459 16.51 62.4609 17.245 62.4609 15.94C62.4609 15.565 62.8359 15.385 63.1659 15.385C63.6009 15.385 63.9309 15.55 63.9459 16.015H66.3909C66.2259 14.245 64.8609 13.39 63.1959 13.39C61.5909 13.39 59.9709 14.395 59.9709 16.135C59.9709 17.305 60.9609 17.95 61.9509 18.31C62.3109 18.445 62.6709 18.565 63.0309 18.685C63.4809 18.865 64.1559 19.045 64.1559 19.645C64.1559 20.08 63.6609 20.29 63.2859 20.29C62.7909 20.29 62.4159 20.035 62.3409 19.525H59.8659C60.0609 21.355 61.5159 22.285 63.2559 22.285C64.9509 22.285 66.6459 21.325 66.6459 19.45ZM71.7762 15.565V13.675H70.5762V10.9H68.0862V13.675H66.8562V15.565H68.0862V22H70.5762V15.565H71.7762ZM76.99 15.895V13.39C76.03 13.39 75.34 13.705 74.905 14.56H74.875V13.675H72.535V22H75.025V17.425C75.025 16.135 75.895 15.925 76.99 15.895ZM85.892 17.935C85.892 15.43 84.047 13.39 81.497 13.39C79.052 13.39 77.132 15.445 77.132 17.86C77.132 20.29 79.112 22.27 81.542 22.27C83.417 22.27 84.887 21.055 85.607 19.39H83.057C82.652 19.9 82.217 20.17 81.542 20.17C80.567 20.17 79.742 19.585 79.592 18.595H85.832C85.877 18.37 85.892 18.16 85.892 17.935ZM83.402 16.915H79.622C79.817 16.015 80.612 15.49 81.512 15.49C82.412 15.49 83.207 16.015 83.402 16.915ZM95.2893 17.935C95.2893 15.43 93.4443 13.39 90.8943 13.39C88.4493 13.39 86.5293 15.445 86.5293 17.86C86.5293 20.29 88.5093 22.27 90.9393 22.27C92.8143 22.27 94.2843 21.055 95.0043 19.39H92.4543C92.0493 19.9 91.6143 20.17 90.9393 20.17C89.9643 20.17 89.1393 19.585 88.9893 18.595H95.2293C95.2743 18.37 95.2893 18.16 95.2893 17.935ZM92.7993 16.915H89.0193C89.2143 16.015 90.0093 15.49 90.9093 15.49C91.8093 15.49 92.6043 16.015 92.7993 16.915ZM100.562 15.565V13.675H99.3616V10.9H96.8716V13.675H95.6416V15.565H96.8716V22H99.3616V15.565H100.562ZM19.18 33.625C19.18 32.365 18.565 31.465 17.35 31.045C18.175 30.58 18.64 29.755 18.64 28.81C18.64 28.12 18.445 27.49 17.98 26.98C17.02 25.915 15.76 25.9 14.425 25.9H11.005V37H14.53C15.97 37 17.02 37.015 18.16 36.04C18.85 35.455 19.18 34.51 19.18 33.625ZM15.925 29.23C15.925 29.935 15.415 30.115 14.8 30.115H13.72V28.39H14.815C15.4 28.39 15.925 28.525 15.925 29.23ZM16.465 33.445C16.465 34.27 15.835 34.51 15.13 34.51H13.72V32.485H15.145C15.805 32.485 16.465 32.65 16.465 33.445ZM24.7519 30.895V28.39C23.7919 28.39 23.1019 28.705 22.6669 29.56H22.6369V28.675H20.2969V37H22.7869V32.425C22.7869 31.135 23.6569 30.925 24.7519 30.895ZM33.6539 32.935C33.6539 30.43 31.8089 28.39 29.2589 28.39C26.8139 28.39 24.8939 30.445 24.8939 32.86C24.8939 35.29 26.8739 37.27 29.3039 37.27C31.1789 37.27 32.6489 36.055 33.3689 34.39H30.8189C30.4139 34.9 29.9789 35.17 29.3039 35.17C28.3289 35.17 27.5039 34.585 27.3539 33.595H33.5939C33.6389 33.37 33.6539 33.16 33.6539 32.935ZM31.1639 31.915H27.3839C27.5789 31.015 28.3739 30.49 29.2739 30.49C30.1739 30.49 30.9689 31.015 31.1639 31.915ZM46.1932 28.675H43.6282L42.3832 33.85H42.3532L40.9732 28.675H38.8732L37.5082 33.85H37.4782L36.2332 28.675H33.6532L36.2032 37H38.5132L39.9082 31.615H39.9382L41.3332 37H43.6432L46.1932 28.675ZM49.3824 27.79V25.9H46.8924V27.79H49.3824ZM49.3824 37V28.675H46.8924V37H49.3824ZM58.5944 37V31.795C58.5944 30.82 58.4294 29.77 57.6344 29.11C57.0944 28.66 56.2094 28.39 55.5044 28.39C54.4994 28.39 53.7644 28.705 53.2394 29.56H53.2094V28.675H50.8844V37H53.3744V32.47C53.3744 31.48 53.6444 30.73 54.7994 30.73C55.9244 30.73 56.1044 31.525 56.1044 32.455V37H58.5944ZM68.6869 35.995V28.675H66.1969V29.455H66.1669C65.6869 28.69 64.7269 28.405 63.8719 28.405C61.3369 28.405 59.6719 30.445 59.6719 32.89C59.6719 35.32 61.3819 37.27 63.8719 37.27C64.7569 37.27 65.7169 36.895 66.1519 36.085H66.1819V36.34C66.1819 37.66 65.5219 38.605 64.1569 38.605C63.5419 38.605 62.9719 38.38 62.7019 37.78H59.8219C59.8819 38.245 60.0619 38.68 60.3319 39.07C61.1569 40.27 62.5669 40.705 63.9769 40.705C65.4919 40.705 67.3669 40.135 68.1919 38.74C68.6719 37.915 68.6869 36.925 68.6869 35.995ZM66.1969 32.875C66.1969 34.075 65.3569 34.945 64.1569 34.945C62.9569 34.945 62.1619 33.955 62.1619 32.8C62.1619 31.675 63.0169 30.73 64.1719 30.73C65.4019 30.73 66.1969 31.675 66.1969 32.875ZM85.6062 32.845H82.6362C82.1412 33.94 81.2112 34.72 79.9662 34.72C78.1512 34.72 76.9812 33.13 76.9812 31.42C76.9812 29.71 78.1512 28.18 79.9512 28.18C81.1962 28.18 82.2012 28.975 82.6362 30.115H85.6062C85.5012 29.47 85.2162 28.84 84.8562 28.3C83.7462 26.62 81.9762 25.69 79.9662 25.69C76.7412 25.69 74.1462 28.18 74.1462 31.435C74.1462 34.69 76.7712 37.21 79.9962 37.21C82.6812 37.21 84.9612 35.47 85.6062 32.845ZM95.2517 32.83C95.2517 30.28 93.3167 28.405 90.7667 28.405C88.2167 28.405 86.2817 30.28 86.2817 32.83C86.2817 35.38 88.2167 37.255 90.7667 37.255C93.3167 37.255 95.2517 35.38 95.2517 32.83ZM92.7617 32.83C92.7617 33.955 91.9217 34.93 90.7667 34.93C89.6117 34.93 88.7717 33.955 88.7717 32.83C88.7717 31.705 89.6117 30.73 90.7667 30.73C91.9217 30.73 92.7617 31.705 92.7617 32.83ZM99.1219 37V34.45H96.5269V37H99.1219Z" fill="#393939"/>
</svg>
